<svg xmlns="http://www.w3.org/2000/svg" viewBox="0 0 385.66 76.13"><defs><style>.cls-1{fill:#27bfcd;}.cls-2,.cls-6{fill:#156d8d;}.cls-3{fill:#77c79c;}.cls-4{fill:#00a992;}.cls-5{fill:#faa542;}.cls-6{opacity:0.6;}.cls-7{fill:#8fc640;}.cls-8{fill:#f3b547;}.cls-9{fill:#f58024;}.cls-10{fill:#dd5c26;}</style></defs><title>Asset 1</title><g id="Layer_2" data-name="Layer 2"><g id="Layer_1-2" data-name="Layer 1"><polygon class="cls-1" points="48.39 75.97 71 75.97 41.23 45.42 48.39 75.97"/><polygon class="cls-2" points="75.97 75.15 75.97 44.9 42.98 40.96 75.97 75.15"/><polygon class="cls-3" points="43.19 37.03 75.97 39.74 75.97 11.02 43.19 37.03"/><polygon class="cls-4" points="44.66 0 17.91 0 36.64 31.52 44.66 0"/><rect class="cls-5" x="37.7" y="37.65" width="0.04" height="0.04"/><polygon class="cls-6" points="35.82 45.21 21.23 75.97 43.08 75.97 36.49 44.04 35.82 45.21"/><polygon class="cls-7" points="75.97 5.32 75.97 0 50.01 0 41.05 33.03 75.97 5.32"/><polygon class="cls-8" points="12.32 0 0 0 0 23.92 33.37 34.45 12.32 0"/><polygon class="cls-9" points="0 29.19 0 54.84 31.11 37.93 0 29.19"/><polygon class="cls-10" points="0 60.54 0 75.97 15.44 75.97 32.17 43.16 0 60.54"/><path class="cls-6" d="M94.93,1h3.56l10.1,24.45L118.72,1h3.44L110,29.53h-2.83Z"/><path class="cls-6" d="M122.9,18.91v-.08c0-6,4.25-10.9,10-10.9,6.2,0,9.77,4.94,9.77,11.06a6.51,6.51,0,0,1-.05,1H126.06c.44,4.54,3.64,7.1,7.37,7.1a8.68,8.68,0,0,0,6.61-3l2,1.74a10.84,10.84,0,0,1-8.64,3.93C127.6,29.81,122.9,25.4,122.9,18.91Zm16.65-1.22c-.32-3.81-2.51-7.13-6.68-7.13-3.65,0-6.41,3-6.81,7.13Z"/><path class="cls-6" d="M148,8.37h3.12v5.47c1.54-3.48,4.58-6,8.55-5.83v3.36h-.24c-4.58,0-8.31,3.28-8.31,9.61v8.35H148Z"/><path class="cls-6" d="M164.2,8.37h3.12V11.9c1.38-2.07,3.24-4,6.77-4a7.13,7.13,0,0,1,6.73,4.17,8.35,8.35,0,0,1,7.37-4.17c4.83,0,7.79,3.24,7.79,8.43v13h-3.12V17.09c0-4.06-2-6.33-5.44-6.33-3.16,0-5.75,2.35-5.75,6.49V29.33h-3.12V17c0-3.94-2.07-6.25-5.39-6.25s-5.84,2.76-5.84,6.61v12H164.2Z"/><path class="cls-6" d="M201.25,19v-.08a10.92,10.92,0,0,1,21.84-.08v.08a10.87,10.87,0,0,1-11,10.94A10.73,10.73,0,0,1,201.25,19Zm18.64,0v-.08a7.93,7.93,0,0,0-7.78-8.19c-4.54,0-7.66,3.69-7.66,8.11v.08A7.86,7.86,0,0,0,212.19,27C216.73,27,219.89,23.37,219.89,19Z"/><path class="cls-6" d="M228.53,8.37h3.12V12a7.91,7.91,0,0,1,7.17-4.09c5.07,0,8,3.4,8,8.39v13h-3.12V17.09c0-3.89-2.11-6.33-5.8-6.33s-6.28,2.64-6.28,6.57v12h-3.12Z"/><path class="cls-6" d="M254.39,23.77V11.13h-2.92V8.37h2.92V2.05h3.12V8.37h6.64v2.76h-6.64V23.37c0,2.55,1.42,3.48,3.52,3.48a6.5,6.5,0,0,0,3-.73V28.8a7.81,7.81,0,0,1-3.77.89C256.94,29.69,254.39,28,254.39,23.77Z"/><path class="cls-2" d="M105.85,39.72h7.21l15.23,35.8h-8.17l-3.25-8h-15l-3.25,8h-8Zm8.23,20.92-4.73-11.52-4.72,11.52Z"/><path class="cls-2" d="M133.27,54.9h-3.2V48.56h3.2V46.83c0-3,.76-5.18,2.19-6.6s3.5-2.13,6.24-2.13a17.07,17.07,0,0,1,5.49.76v6.4a9.74,9.74,0,0,0-3.51-.66c-1.77,0-2.79.91-2.79,2.94v1.07h6.25V54.9H141V75.52h-7.72Z"/><path class="cls-2" d="M152.62,67.8V54.9h-3.25V48.3h3.25V41.35h7.72V48.3h6.4v6.6h-6.4V66.53c0,1.78.76,2.64,2.49,2.64a7.86,7.86,0,0,0,3.81-1V74.4a11.37,11.37,0,0,1-6.1,1.58C155.82,76,152.62,74.1,152.62,67.8Z"/><path class="cls-2" d="M170.34,62.06V62c0-7.77,5.54-14.16,13.46-14.16,9.09,0,13.25,7.05,13.25,14.77,0,.61-.05,1.32-.1,2H178a6.31,6.31,0,0,0,6.65,5.34,9,9,0,0,0,6.61-2.8l4.41,3.91a13.6,13.6,0,0,1-11.12,5.08C176.39,76.13,170.34,70.39,170.34,62.06Zm19.2-2.28c-.46-3.45-2.49-5.79-5.74-5.79s-5.28,2.29-5.89,5.79Z"/><path class="cls-2" d="M202.79,48.3h7.72v5.49c1.58-3.76,4.12-6.2,8.69-6v8.07h-.41c-5.13,0-8.28,3.1-8.28,9.6v10h-7.72Z"/><path class="cls-2" d="M221.89,71.92l3.3-5.08a15.39,15.39,0,0,0,8.58,3.25c2.24,0,3.25-.81,3.25-2V68c0-1.68-2.64-2.24-5.64-3.15-3.8-1.12-8.12-2.9-8.12-8.18v-.1c0-5.54,4.47-8.63,10-8.63a18.77,18.77,0,0,1,10.16,3.15l-3,5.33a16,16,0,0,0-7.36-2.54c-1.88,0-2.84.81-2.84,1.88v.1c0,1.52,2.59,2.23,5.53,3.25,3.81,1.27,8.23,3.1,8.23,8.07v.1c0,6.05-4.52,8.79-10.41,8.79A19.07,19.07,0,0,1,221.89,71.92Z"/><path class="cls-2" d="M248.19,62.06V62A14,14,0,0,1,262.46,47.8c5.13,0,8.33,1.72,10.87,4.57l-4.72,5.07c-1.73-1.82-3.46-3-6.2-3-3.86,0-6.6,3.4-6.6,7.41V62c0,4.17,2.69,7.52,6.91,7.52,2.59,0,4.36-1.12,6.24-2.9l4.52,4.57a13.68,13.68,0,0,1-11.12,5A13.91,13.91,0,0,1,248.19,62.06Z"/><path class="cls-2" d="M278.51,38.45h7.72V52.16c1.78-2.28,4.06-4.36,8-4.36,5.84,0,9.24,3.85,9.24,10.1V75.52h-7.71V60.34c0-3.66-1.73-5.54-4.68-5.54s-4.82,1.88-4.82,5.54V75.52h-7.72Z"/><path class="cls-2" d="M308.83,62.06V62c0-7.82,6.29-14.16,14.78-14.16S338.28,54,338.28,61.86V62c0,7.82-6.3,14.17-14.78,14.17S308.83,69.88,308.83,62.06Zm21.83,0V62a7.23,7.23,0,0,0-7.16-7.51c-4.41,0-7.06,3.4-7.06,7.41V62a7.24,7.24,0,0,0,7.17,7.52C328,69.48,330.66,66.08,330.66,62.06Z"/><path class="cls-2" d="M342.55,62.06V62c0-7.82,6.29-14.16,14.78-14.16S372,54,372,61.86V62c0,7.82-6.3,14.17-14.78,14.17S342.55,69.88,342.55,62.06Zm21.83,0V62a7.23,7.23,0,0,0-7.16-7.51c-4.41,0-7.05,3.4-7.05,7.41V62a7.23,7.23,0,0,0,7.16,7.52C361.74,69.48,364.38,66.08,364.38,62.06Z"/><path class="cls-2" d="M377.94,38.45h7.72V75.52h-7.72Z"/></g></g></svg>