<svg xmlns="http://www.w3.org/2000/svg" viewBox="0 0 75.97 75.97"><defs><style>.cls-1{fill:#27bfcd;}.cls-2,.cls-6{fill:#156d8d;}.cls-3{fill:#77c79c;}.cls-4{fill:#00a992;}.cls-5{fill:#faa542;}.cls-6{opacity:0.6;}.cls-7{fill:#8fc640;}.cls-8{fill:#f3b547;}.cls-9{fill:#f58024;}.cls-10{fill:#dd5c26;}</style></defs><title>Asset 2</title><g id="Layer_2" data-name="Layer 2"><g id="Layer_1-2" data-name="Layer 1"><polygon class="cls-1" points="48.39 75.97 71 75.97 41.23 45.42 48.39 75.97"/><polygon class="cls-2" points="75.97 75.15 75.97 44.9 42.98 40.96 75.97 75.15"/><polygon class="cls-3" points="43.19 37.03 75.97 39.74 75.97 11.02 43.19 37.03"/><polygon class="cls-4" points="44.66 0 17.91 0 36.64 31.52 44.66 0"/><rect class="cls-5" x="37.7" y="37.65" width="0.04" height="0.04"/><polygon class="cls-6" points="35.82 45.21 21.23 75.97 43.08 75.97 36.49 44.04 35.82 45.21"/><polygon class="cls-7" points="75.97 5.32 75.97 0 50.01 0 41.05 33.03 75.97 5.32"/><polygon class="cls-8" points="12.32 0 0 0 0 23.92 33.37 34.45 12.32 0"/><polygon class="cls-9" points="0 29.19 0 54.84 31.11 37.93 0 29.19"/><polygon class="cls-10" points="0 60.54 0 75.97 15.44 75.97 32.17 43.16 0 60.54"/></g></g></svg>